<?xml version="1.0" standalone="no"?>
<!DOCTYPE svg PUBLIC "-//W3C//DTD SVG 20010904//EN"
 "http://www.w3.org/TR/2001/REC-SVG-20010904/DTD/svg10.dtd">
<svg version="1.0" xmlns="http://www.w3.org/2000/svg"
 width="260.000000pt" height="260.000000pt" viewBox="0 0 260.000000 260.000000"
 preserveAspectRatio="xMidYMid meet">
<metadata>
Created by potrace 1.11, written by Peter Selinger 2001-2013
</metadata>
<g transform="translate(0.000000,260.000000) scale(0.100000,-0.100000)"
fill="#000000" stroke="none">
<path d="M1136 2517 c-20 -15 -21 -13 79 -306 52 -155 54 -167 25 -149 -11 7
-20 21 -20 30 0 27 -29 22 -42 -7 -10 -22 -15 -24 -52 -19 -23 3 -47 8 -55 10
-8 3 -44 -14 -82 -36 -37 -22 -74 -40 -82 -40 -13 0 -275 -116 -286 -126 -3
-3 3 -12 12 -21 15 -15 21 -14 88 20 86 45 113 48 76 11 -29 -29 -42 -78 -34
-128 3 -19 1 -51 -3 -72 -12 -53 6 -108 47 -144 19 -17 45 -30 58 -30 27 0 31
-18 26 -116 -2 -23 4 -55 12 -70 11 -21 12 -36 5 -54 -5 -14 -8 -58 -6 -97 3
-71 5 -74 48 -118 29 -30 51 -44 63 -41 14 3 17 -3 17 -48 0 -38 6 -61 25 -88
21 -31 23 -41 14 -65 -6 -15 -14 -48 -19 -73 -8 -40 -5 -51 23 -100 28 -48 32
-65 32 -127 0 -60 4 -75 23 -95 12 -14 22 -30 22 -36 0 -7 15 -29 33 -49 18
-21 34 -51 35 -68 9 -93 54 -161 121 -184 50 -16 119 8 147 52 54 83 59 203
11 276 -15 22 -27 43 -27 46 0 3 15 5 33 5 50 0 122 50 137 96 12 36 9 130 -5
166 -5 12 1 18 25 23 26 6 36 16 55 60 26 59 23 98 -14 160 l-20 35 28 15 c20
10 34 29 45 61 18 55 13 84 -24 140 l-27 41 21 34 c19 30 25 34 60 31 51 -4
109 35 131 90 20 50 13 83 -26 138 l-30 41 26 45 c22 37 25 52 19 89 -3 25
-15 56 -26 70 -19 24 -19 25 3 54 13 18 24 50 27 81 4 49 3 52 -37 90 -23 22
-60 45 -83 51 -24 7 -51 19 -60 27 -15 12 -15 16 -3 28 7 8 18 14 24 14 6 0
11 13 11 29 0 25 -6 32 -40 47 -38 17 -39 19 -19 26 39 15 4 33 -60 32 -131
-2 -301 -90 -301 -156 0 -53 -19 -37 -40 34 -37 127 -113 353 -123 366 -12 15
-19 15 -41 -1z m224 -546 c-10 -20 -30 -29 -30 -14 0 10 33 44 37 39 3 -2 0
-14 -7 -25z"/>
</g>
</svg>
